PathFileType	4	(X/Y/Z)	C:/Users/opensim2020/Desktop/walking_exp_matlab/subject02_walking08_straight_02.trc	
DataRate	CameraRate	NumFrames	NumMarkers	Units	OrigDataRate	OrigDataStartFrame	OrigNumFrames	
100.00	100.00	9	41	mm	100.00	1598	259	
Frame#	Time	LFHD			RFHD			LBHD			RBHD			C7			T10			CLAV			STRN			RBAK			LSHO			LUPA			LELB			LFRM			LWRA			LWRB			LFIN			RSHO			RUPA			RELB			RFRM			RWRA			RWRB			RFIN			LASI			RASI			LPSI			RPSI			LTHI			LKNE			LTIB			LANK			LHEE			LTOE			RTHI			RKNE			RTIB			RANK			RHEE			RTOE			*39			*40			
		X1	Y1	Z1	X2	Y2	Z2	X3	Y3	Z3	X4	Y4	Z4	X5	Y5	Z5	X6	Y6	Z6	X7	Y7	Z7	X8	Y8	Z8	X9	Y9	Z9	X10	Y10	Z10	X11	Y11	Z11	X12	Y12	Z12	X13	Y13	Z13	X14	Y14	Z14	X15	Y15	Z15	X16	Y16	Z16	X17	Y17	Z17	X18	Y18	Z18	X19	Y19	Z19	X20	Y20	Z20	X21	Y21	Z21	X22	Y22	Z22	X23	Y23	Z23	X24	Y24	Z24	X25	Y25	Z25	X26	Y26	Z26	X27	Y27	Z27	X28	Y28	Z28	X29	Y29	Z29	X30	Y30	Z30	X31	Y31	Z31	X32	Y32	Z32	X33	Y33	Z33	X34	Y34	Z34	X35	Y35	Z35	X36	Y36	Z36	X37	Y37	Z37	X38	Y38	Z38	X39	Y39	Z39	X40	Y40	Z40	X41	Y41	Z41	

130	1.290	1475.10510	-77.06006	1730.77197	1332.04907	-69.58582	1714.50378	1488.30652	51.72864	1653.81396	1346.92737	71.41669	1636.83118	1410.09924	112.13245	1521.60693	1398.35901	177.07704	1246.83899	1421.68506	-21.72417	1444.45447	1403.58643	-66.09973	1271.60303	1337.40588	175.18353	1353.69446	1591.75867	46.21691	1482.48486	1663.60974	75.68524	1279.64014	1666.17371	90.52126	1137.86292	1664.79236	84.05685	1004.31580	1612.46448	35.71101	881.12384	1653.31750	76.11026	881.37177	1644.42664	58.88322	816.00378	1226.02185	27.01634	1491.46362	1129.75208	24.78447	1303.81091	1103.00635	-23.14550	1164.66931	1087.32190	-88.44714	1063.02112	1109.09338	-172.50629	960.32037	1074.68921	-131.85942	940.40094	1073.43359	-189.97832	897.15515	1523.00427	-66.06513	985.60938	1264.69922	-51.66835	968.83423	1453.28162	149.16586	1024.08459	1339.55750	160.19673	1024.93604	1596.86353	-62.30724	682.08862	1567.60559	-100.82940	485.87000	1577.52637	-114.78867	293.24469	1557.88147	-201.60175	84.08976	1506.57715	-177.97026	45.50899	1559.50659	-358.48260	89.90811	1219.69849	59.00529	664.61914	1265.78601	89.70490	456.75662	1263.91028	166.92633	283.78543	1307.95825	221.13376	98.05750	1365.11609	262.36795	46.40532	1290.01624	75.77873	36.00596	1391.51184	30.32085	1796.63489	-3360.40454	2845.37207	1033.84021 
131	1.300	1477.05334	-85.19215	1729.21057	1333.98792	-77.84946	1713.42310	1490.04077	43.73978	1652.75037	1348.57483	63.25779	1636.09619	1411.55408	103.88825	1520.44861	1399.62634	168.88976	1245.68738	1422.96631	-29.85408	1443.38782	1404.54041	-74.36507	1270.57715	1338.49719	166.63704	1352.34204	1592.76416	37.94048	1480.91492	1665.06079	67.23859	1278.29785	1667.43982	80.86843	1136.15076	1666.14087	73.43270	1002.63049	1614.70020	23.55006	880.30695	1655.01392	64.72412	879.92291	1646.71350	46.82759	814.97229	1227.57800	19.18683	1490.73096	1130.67346	15.41128	1302.86975	1104.55969	-32.26477	1163.76379	1089.34131	-98.49998	1062.49182	1112.17651	-182.70856	960.24023	1077.55566	-142.40140	939.99316	1076.80823	-200.55341	897.00592	1523.43677	-74.79533	984.37866	1265.17090	-59.79865	967.45062	1454.48413	140.74950	1022.98846	1340.73206	151.91714	1023.88019	1597.85205	-70.43310	680.82080	1568.60034	-109.55900	484.79120	1579.07288	-126.76636	292.63837	1559.88794	-217.55962	85.05253	1508.83301	-194.28812	45.96381	1560.77344	-374.48022	92.96434	1220.09033	52.95930	663.82172	1266.09058	84.95810	456.19647	1264.18445	164.26674	284.18991	1308.05359	220.45688	98.89544	1365.34167	262.06552	47.52393	1289.99316	75.77616	36.07265	1393.45764	21.83828	1795.64832	-3357.19263	2845.76953	1034.05627 
132	1.310	1479.17542	-93.42435	1728.00610	1336.06335	-86.28210	1712.37964	1491.81848	35.69956	1651.69263	1350.28821	55.09484	1635.36560	1412.99792	95.97393	1519.33936	1400.89148	160.32678	1244.44556	1424.31067	-38.00203	1442.19360	1405.64624	-82.72903	1269.56482	1339.42090	158.04404	1351.25330	1594.55518	30.30727	1479.84033	1666.41101	58.47778	1276.78931	1669.16162	71.43082	1134.73401	1667.96082	62.92832	1001.15753	1616.56641	12.09598	879.15625	1657.00574	53.20970	878.55908	1649.05432	34.67662	813.83405	1228.76404	10.65804	1489.78809	1132.49585	6.75816	1302.17627	1106.20898	-41.44862	1162.88049	1091.89624	-107.84105	1061.64453	1115.37427	-192.59280	959.97754	1080.48938	-152.63603	939.49835	1079.98730	-211.38919	896.65784	1524.06433	-83.52008	983.08728	1265.81812	-67.96983	966.12201	1455.77588	132.19739	1021.94305	1342.02930	143.54128	1022.84503	1598.77551	-78.86997	679.61914	1569.81873	-118.60885	483.92474	1580.53772	-138.12224	292.03717	1561.59326	-231.92734	85.63570	1510.68140	-208.97861	46.16055	1562.61914	-388.73273	95.36266	1220.73438	46.55463	663.17639	1266.40662	80.38720	455.75385	1264.38867	161.92601	284.59781	1308.14050	219.78438	99.88881	1365.45081	261.77573	48.86063	1289.85669	75.60120	35.85988	1395.57422	13.33549	1794.74951	-3360.33472	2845.24780	1033.97693 
133	1.320	1481.34338	-101.74467	1726.76697	1338.19873	-94.66167	1711.30505	1493.70459	27.59415	1650.64075	1352.10730	46.88342	1634.57007	1414.52100	87.53189	1518.13586	1402.32629	151.85136	1243.21533	1425.83337	-46.26407	1441.14893	1406.92249	-91.13534	1268.58081	1340.80933	149.56516	1349.98645	1596.10828	22.24794	1478.47070	1667.95435	49.65462	1275.41248	1670.93079	61.81438	1133.24646	1670.20435	52.50594	999.86658	1618.44702	0.96810	877.78241	1659.26318	41.69238	877.22437	1651.56396	22.64281	812.69977	1230.39771	2.41898	1488.91150	1133.85437	-1.71838	1300.99915	1107.98157	-50.41030	1161.94910	1094.11255	-117.68231	1060.98218	1118.62170	-202.29524	959.58325	1083.55225	-162.75900	939.06183	1083.80603	-221.50163	896.36151	1524.89221	-92.26331	981.80139	1266.66553	-76.37185	964.90802	1457.21094	123.63330	1020.92206	1343.43164	135.10030	1021.85034	1599.68127	-87.75969	678.57111	1571.20728	-128.10527	483.17673	1582.00195	-148.86409	291.38135	1563.04285	-244.33504	85.74208	1511.93347	-222.03174	46.17267	1564.86304	-401.15204	96.73180	1221.65918	40.09505	662.51477	1266.75244	75.82394	455.37286	1264.63428	159.26534	285.09979	1308.21948	219.06647	100.97755	1365.86121	261.34229	50.29288	1289.74866	75.50552	35.80538	1397.71631	4.85362	1793.84143	-3360.21021	2845.11108	1034.18103 
134	1.330	1483.54749	-109.97421	1725.44751	1340.20691	-103.18767	1710.13879	1495.81494	19.70568	1649.64319	1354.03589	38.60821	1633.79480	1416.16321	79.30180	1516.99072	1403.88330	143.22093	1241.97839	1427.50195	-54.55497	1440.12500	1408.35547	-99.65615	1267.61426	1342.53625	141.26939	1348.89404	1597.77344	14.14766	1477.14453	1669.45752	40.69113	1273.93335	1672.85242	52.18655	1131.82068	1672.26599	41.96038	998.50024	1620.71863	-10.24535	876.56018	1661.75916	30.26894	875.94727	1654.45276	10.71422	811.68555	1232.09106	-6.08392	1488.08496	1135.90991	-9.33181	1299.62793	1109.92688	-59.41235	1160.93433	1096.77930	-126.71175	1060.04297	1121.96460	-211.71617	958.87384	1086.59717	-172.45633	938.18726	1087.38721	-231.34988	895.73572	1525.93188	-101.14702	980.54688	1267.67322	-84.81255	963.76251	1458.74463	114.89225	1019.94720	1345.03540	126.55433	1020.81311	1600.71582	-97.20453	677.74707	1572.62146	-137.97664	482.56534	1583.33899	-158.97563	290.70609	1564.36279	-254.97076	85.38876	1513.04333	-233.17459	45.70526	1567.11816	-411.86288	96.79523	1222.47437	33.70952	662.30432	1267.10645	71.17950	455.06305	1265.18896	156.71733	285.72037	1308.25952	218.38280	102.12891	1365.64868	261.05667	51.70271	1289.64087	75.46081	35.86668	1399.96765	-3.63796	1792.95813	-3360.22485	2845.13135	1034.17993 
135	1.340	1485.83765	-118.26167	1724.07617	1342.63940	-111.60281	1709.22717	1497.65125	11.36577	1648.58411	1355.97058	30.24003	1632.97168	1417.89282	71.14864	1515.85095	1405.40503	134.40627	1240.68481	1429.32227	-62.96882	1439.12183	1409.96521	-108.24426	1266.64343	1343.92737	132.51505	1347.55884	1599.53845	6.01271	1475.81189	1670.94385	31.51092	1272.41748	1674.85803	42.54909	1130.42847	1674.71191	31.34481	997.23315	1623.45203	-21.57277	875.45313	1664.47913	18.97191	874.70300	1657.51892	-1.08553	810.64258	1233.76465	-14.73037	1487.09827	1137.71436	-18.77469	1298.98267	1112.21228	-68.25638	1159.71057	1099.47913	-135.73592	1059.07788	1125.25916	-221.07802	957.87744	1089.76233	-181.90149	937.32947	1091.07593	-240.84583	894.85840	1527.26355	-110.12949	979.31982	1268.84668	-93.47345	962.68207	1460.31445	106.10286	1018.94659	1346.67834	117.84631	1019.77765	1601.88953	-107.19409	677.12439	1574.06665	-148.10699	482.01099	1584.54663	-168.55162	289.94781	1565.64050	-264.26395	84.66994	1513.88208	-242.56441	45.31316	1569.32813	-420.98734	95.71597	1223.55994	27.18408	661.63562	1267.56702	66.49683	454.84268	1265.47253	154.06522	286.42581	1308.07642	217.62825	103.33444	1365.59265	260.88104	53.55169	1289.48865	75.35793	35.82943	1402.19043	-12.17613	1791.99756	-3357.31714	2845.99292	1034.12683 
136	1.350	1488.20728	-126.53987	1722.96069	1345.02002	-120.14404	1708.22388	1500.04614	3.32932	1647.62549	1358.07703	21.87507	1632.08032	1419.75195	62.74944	1514.66553	1407.07959	125.64297	1239.45654	1431.30933	-71.40630	1438.14575	1411.73535	-116.94756	1265.73450	1345.74573	124.05689	1346.45972	1601.40027	-2.18895	1474.44678	1673.04822	22.62620	1271.25977	1677.09729	32.84754	1129.16541	1677.30420	20.80773	996.08429	1626.35144	-32.91106	874.18579	1667.44556	7.81392	873.57214	1660.72510	-12.91987	809.56085	1235.80725	-23.35354	1486.29065	1139.16504	-28.20930	1297.99316	1114.19531	-77.04184	1158.81873	1102.12671	-144.93668	1058.04614	1128.89575	-229.91740	957.09247	1092.92310	-191.10458	936.37018	1094.78870	-249.99274	893.81995	1528.86853	-119.22053	978.16522	1270.26477	-102.30804	961.63538	1461.97534	97.18391	1017.95953	1348.45215	108.98331	1018.75525	1603.47693	-117.70129	676.81238	1575.57031	-158.32401	481.51263	1585.83008	-177.60793	289.16577	1567.10693	-271.96246	83.60342	1515.27246	-250.36903	44.30315	1571.57324	-428.70059	93.71312	1224.55127	20.62348	661.19891	1267.94641	61.78973	454.68738	1265.80383	151.30322	287.31992	1307.95020	216.91383	104.90502	1365.24573	260.46191	55.17454	1289.31885	75.24005	35.79074	1404.55750	-20.69023	1791.09680			 
137	1.360	1490.60706	-134.85410	1721.91101	1347.38074	-128.56360	1707.24866	1501.98157	-5.17384	1646.56592	1360.23486	13.40448	1631.15881	1421.77771	54.22186	1513.53064	1408.74670	116.70284	1238.20142	1433.38855	-79.92361	1437.21582	1413.74976	-125.71641	1264.89148	1347.54675	115.26707	1345.22253	1603.42310	-10.39483	1473.25134	1674.82617	13.38197	1269.84912	1679.49292	23.17165	1127.92200	1680.02478	10.52155	994.88422	1629.81055	-44.11575	873.21826	1670.65771	-3.19682	872.47449	1664.44263	-24.15964	808.70569	1237.89893	-32.16135	1485.42065	1141.59521	-36.27016	1296.86255	1116.68384	-85.84352	1157.52502	1104.96533	-153.65862	1056.91687	1132.39307	-238.62590	955.99127	1096.14539	-200.07016	935.28876	1098.50256	-258.86813	892.66547	1530.68164	-128.42055	977.07849	1271.88245	-111.35296	960.63654	1463.72119	88.13251	1016.90448	1350.31079	99.94512	1017.68073	1605.03101	-128.41081	676.48370	1577.10522	-168.56047	480.91296	1587.14355	-186.09622	288.38177	1568.39050	-278.61581	82.13284	1516.69604	-256.72202	42.54285	1573.75781	-435.19214	90.90702	1225.37000	14.16387	660.77521	1268.48804	56.81747	454.51886	1266.07971	148.46693	288.20935	1307.58057	216.04906	106.30361	1364.93018	260.08722	57.07381	1289.17627	75.07619	35.82988	1406.86255	-29.11590	1790.14233			 
138	1.370	1493.14783	-143.24759	1721.03796	1349.90930	-137.18932	1706.30664	1504.55603	-13.26493	1645.57385	1362.56067	5.29051	1629.98438	1423.87048	45.79150	1512.32056	1410.52283	107.66772	1236.87524	1435.59778	-88.51499	1436.26392	1415.84912	-134.64726	1264.04968	1349.45654	106.52238	1344.00635	1605.57324	-18.57715	1472.05786	1677.23975	4.51499	1268.75989	1681.99756	13.51776	1126.73401	1682.72424	0.05566	993.59882	1633.73694	-55.13654	872.51807	1674.07007	-14.00277	871.46973	1668.23022	-35.42387	807.81580	1239.88501	-41.16154	1484.43457	1143.75513	-45.94523	1296.36072	1118.95728	-94.53027	1156.61841	1107.83740	-162.42731	1055.80151	1135.88831	-247.01419	954.65070	1099.36072	-208.76305	934.07556	1102.23401	-267.51657	891.48126	1532.92419	-137.90604	976.30023	1273.72412	-120.61694	959.67053	1465.44275	78.87033	1015.77911	1352.20691	90.67920	1016.55536	1606.80945	-139.40640	676.25745	1578.83972	-178.61436	480.28372	1588.57043	-194.15654	287.36053	1569.41833	-284.26514	79.90334	1517.88647	-262.12006	40.97564	1575.98572	-440.58463	87.65851	1226.79700	7.26161	660.34448	1269.00427	51.82769	454.45303	1266.43091	145.50348	289.19412	1307.33154	215.18677	107.97905	1364.56628	259.71600	59.21004	1288.99829	74.95180	35.76461	1409.21606	-37.55679	1789.09668			 
